# xmcd CD database file
#
# Track frame offsets:
#	150
#	24678
#	79941
#	105420
#	134612
#	162839
#	179232
#	203611
#	217944
#	246505
#	272975
#	299157
#	317472
#	329016
#
# Disc length: 4728 seconds
#
# Revision: 1
# Processed by: cddbd v1.5.2PL0 Copyright (c) Steve Scherf et al.
# Submitted via: CDex 2.16
#
DISCID=de12760e
DTITLE=Various Artist - EMOTIONAL JAZZ SAXOPHONE [CD3)
DYEAR=2016
DGENRE=Jazz
TTITLE0=Take Five-The Dave Brubeck Quartet(Paul Desmond)
TTITLE1=Tenor Madness-Sonny Rollins with John Coltrane
TTITLE2=Remember-Hank Mobley
TTITLE3=You Don't Know What Love Is-Sonny Rollins
TTITLE4=Stella By Starlight-Charlie Rouse
TTITLE5=John's Groove- Barney Wilen
TTITLE6=You'd Be So Nice To Come Home To-Art Pepper
TTITLE7=Split Kick-Stan Getz
TTITLE8=Ruby,My Dear-Thelonious Monk and John Coltrane
TTITLE9=Like Someone In Love-Tubby Hayes
TTITLE10=Bluesville-Sonny Red
TTITLE11=I Can't Give You Anything But Love-Sonny Stitt and Oscar Peterson Trio
TTITLE12=I Know-Sonny Rollins
TTITLE13=I Remember Clifford-J.R.Monterose
EXTD=YEAR: 2016
EXTT0=
EXTT1=
EXTT2=
EXTT3=
EXTT4=
EXTT5=
EXTT6=
EXTT7=
EXTT8=
EXTT9=
EXTT10=
EXTT11=
EXTT12=
EXTT13=
PLAYORDER=
